<?xml version="1.0" standalone="no"?>
<!DOCTYPE svg PUBLIC "-//W3C//DTD SVG 20010904//EN"
 "http://www.w3.org/TR/2001/REC-SVG-20010904/DTD/svg10.dtd">
<svg version="1.0" xmlns="http://www.w3.org/2000/svg"
 width="489.000000pt" height="489.000000pt" viewBox="0 0 489.000000 489.000000"
 preserveAspectRatio="xMidYMid meet">
<metadata>
Created by potrace 1.11, written by Peter Selinger 2001-2013
</metadata>
<g transform="translate(0.000000,489.000000) scale(0.100000,-0.100000)"
fill="#000000" stroke="none">
<path d="M2 2448 l3 -2443 2441 -1 2441 -1 0 2444 0 2443 -2444 0 -2443 0 2
-2442z m4634 -4 l1 -2191 -2194 0 -2193 0 0 2194 0 2193 2193 -2 2192 -3 1
-2191z"/>
<path d="M1668 3463 c-36 -20 -54 -39 -73 -77 -53 -107 -17 -219 87 -266 54
-25 104 -25 160 -1 86 37 124 101 116 196 -8 100 -79 164 -186 171 -47 3 -65
-1 -104 -23z"/>
<path d="M2360 3442 l-30 -30 0 -952 0 -952 29 -29 c28 -28 34 -29 115 -29 75
0 88 3 113 24 26 22 28 30 30 103 1 43 2 79 3 81 0 2 17 -16 38 -41 78 -92
175 -149 312 -184 8 -2 57 -7 109 -10 328 -21 592 164 696 487 38 117 44 314
14 435 -22 88 -84 223 -124 270 -115 134 -207 197 -350 241 -61 18 -280 26
-335 12 -149 -37 -249 -96 -327 -191 -18 -21 -33 -38 -34 -36 0 2 -1 178 -2
391 l-2 387 -23 23 c-19 20 -35 23 -112 26 -88 4 -90 4 -120 -26z m883 -842
c168 -64 266 -218 273 -430 5 -159 -35 -274 -129 -371 -82 -85 -195 -128 -323
-124 -272 8 -462 222 -448 505 10 212 146 386 338 436 75 19 217 12 289 -16z"/>
<path d="M1647 2830 c-15 -12 -29 -35 -32 -53 -3 -18 -6 -383 -8 -812 l-2
-780 -23 -47 c-31 -62 -71 -90 -137 -96 -101 -8 -163 32 -172 112 -3 25 -12
51 -19 57 -19 15 -178 19 -206 5 -12 -6 -25 -22 -28 -36 -9 -38 9 -149 31
-192 48 -94 154 -167 274 -189 63 -12 192 -6 269 11 109 24 199 98 250 204 63
130 64 144 62 1009 l-1 779 -28 24 c-25 21 -38 24 -116 24 -74 0 -93 -3 -114
-20z"/>
</g>
</svg>
